<svg width="30" height="25" viewBox="0 0 30 25" fill="none" xmlns="http://www.w3.org/2000/svg">
<path d="M2.81676 18H4.9304V11.1818H8.74858C8.90199 11.1818 9.04688 11.1818 9.19176 11.1733L12.8736 18H15.3281L11.3821 10.7898C13.6065 10.0312 14.6463 8.21591 14.6463 5.89773C14.6463 2.8125 12.8054 0.545454 8.71449 0.545454H2.81676V18ZM4.9304 9.27273V2.42045H8.64631C11.4759 2.42045 12.5668 3.80114 12.5668 5.89773C12.5668 7.99432 11.4759 9.27273 8.6804 9.27273H4.9304ZM26.1456 12.6477C26.1456 15.1023 24.2706 16.2273 22.7706 16.2273C21.1001 16.2273 19.907 15 19.907 13.0909V4.90909H17.8956V13.2273C17.8956 16.5682 19.6683 18.1705 22.1229 18.1705C24.1001 18.1705 25.3956 17.1136 26.0092 15.7841H26.1456V18H28.157V4.90909H26.1456V12.6477Z" fill="white"/>
<path d="M0.703125 22.7727H29.9979V24.4091H0.703125V22.7727Z" fill="white"/>
</svg>
